<?xml version="1.0" standalone="no"?><!DOCTYPE svg PUBLIC "-//W3C//DTD SVG 1.1//EN" "http://www.w3.org/Graphics/SVG/1.1/DTD/svg11.dtd"><svg height="66" node-id="1" sillyvg="true" template-height="66" template-width="144" version="1.1" viewBox="0 0 144 66" width="144" xmlns="http://www.w3.org/2000/svg" xmlns:xlink="http://www.w3.org/1999/xlink"><defs node-id="11"></defs><g node-id="21"><path d="M 57.04 41.26 L 42.05 57.77 C 42.05 57.77 89.02 63.13 116.50 54.05 C 143.98 44.97 143.98 25.98 121.96 18.95 C 99.94 11.93 44.06 3.27 16.58 23.09 C -10.90 42.91 26.59 54.05 26.59 54.05 Z" fill="#076277" fill-rule="nonzero" group-id="1" node-id="15" stroke="none" target-height="59.86815" target-width="154.88152" target-x="-10.902257" target-y="3.2664595"></path><path d="M 57.15 38.12 L 42.28 55.32 C 42.28 55.32 88.89 60.91 116.16 51.45 C 143.43 41.98 143.43 22.21 121.58 14.91 C 99.73 7.60 44.27 -1.44 17.00 19.20 C -10.27 39.84 26.93 51.45 26.93 51.45 Z" fill="#11b7b7" fill-rule="nonzero" group-id="1" node-id="17" stroke="none" target-height="62.349247" target-width="153.70163" target-x="-10.26935" target-y="-1.4370866"></path><path d="M 81.04 25.59 C 81.04 27.20 78.43 28.50 75.22 28.50 C 72.01 28.50 69.40 27.20 69.40 25.59 C 69.40 23.98 72.01 22.68 75.22 22.68 C 78.43 22.68 81.04 23.98 81.04 25.59 Z" fill="#bae28e" fill-rule="nonzero" group-id="1" node-id="19" stroke="none" target-height="5.819998" target-width="11.639999" target-x="69.4" target-y="22.68"></path></g></svg>